<?xml version="1.0" encoding="utf-8"?>
<!-- Generator: Adobe Illustrator 19.0.0, SVG Export Plug-In . SVG Version: 6.00 Build 0)  -->
<svg version="1.1" xmlns="http://www.w3.org/2000/svg" xmlns:xlink="http://www.w3.org/1999/xlink" x="0px" y="0px"
	 viewBox="0 0 300 400.3" style="enable-background:new 0 0 300 400.3;" xml:space="preserve">
<style type="text/css">
	.st0{clip-path:url(#XMLID_45_);}
	.st1{clip-path:url(#XMLID_60_);}
	.st2{clip-path:url(#XMLID_61_);}
	.st3{clip-path:url(#XMLID_63_);fill:#607D8B;}
	.st4{opacity:0.1;clip-path:url(#XMLID_63_);}
	.st5{clip-path:url(#XMLID_64_);}
	.st6{clip-path:url(#XMLID_65_);fill:url(#XMLID_66_);}
	.st7{clip-path:url(#XMLID_63_);fill:#FFFFFF;}
	.st8{clip-path:url(#XMLID_63_);fill:#D81B61;}
	.st9{clip-path:url(#XMLID_63_);}
	.st10{clip-path:url(#XMLID_68_);}
	.st11{fill:#434343;}
</style>
<g id="Layer_1">
	<g id="XMLID_1_">
		<g>
			<defs>
				<rect id="XMLID_46_" x="0" width="300" height="300"/>
			</defs>
			<clipPath id="XMLID_45_">
				<use xlink:href="#XMLID_46_"  style="overflow:visible;"/>
			</clipPath>
			<g class="st0">
				<defs>
					<rect id="XMLID_47_" x="0" width="300" height="300"/>
				</defs>
				<clipPath id="XMLID_60_">
					<use xlink:href="#XMLID_47_"  style="overflow:visible;"/>
				</clipPath>
				<g class="st1">
					<defs>
						<rect id="XMLID_58_" x="0" width="300" height="300"/>
					</defs>
					<clipPath id="XMLID_61_">
						<use xlink:href="#XMLID_58_"  style="overflow:visible;"/>
					</clipPath>
					<g class="st2">
						<g>
							<defs>
								<rect id="XMLID_59_" x="0" width="300" height="300"/>
							</defs>
							<clipPath id="XMLID_62_">
								<use xlink:href="#XMLID_59_"  style="overflow:visible;"/>
							</clipPath>
						</g>
					</g>
				</g>
				<g class="st1">
					<defs>
						<path id="XMLID_50_" d="M3.9,0C1.7,0,0,1.7,0,3.9v292.3c0,2.1,1.7,3.9,3.9,3.9h292.3c2.1,0,3.9-1.7,3.9-3.9V3.9
							c0-2.1-1.7-3.9-3.9-3.9H3.9z"/>
					</defs>
					<clipPath id="XMLID_63_">
						<use xlink:href="#XMLID_50_"  style="overflow:visible;"/>
					</clipPath>
					<path id="XMLID_57_" class="st3" d="M296.1,300H3.9c-2.1,0-3.9-1.7-3.9-3.9V3.9C0,1.7,1.7,0,3.9,0h292.3c2.1,0,3.9,1.7,3.9,3.9
						v292.3C300,298.3,298.3,300,296.1,300"/>
					<g class="st4">
						<g>
							<defs>
								<rect id="XMLID_54_" x="58.5" y="58.5" width="290.5" height="290.5"/>
							</defs>
							<clipPath id="XMLID_64_">
								<use xlink:href="#XMLID_54_"  style="overflow:visible;"/>
							</clipPath>
							<g class="st5">
								<defs>
									<path id="XMLID_55_" d="M348.6,166l0.2-0.2h-0.4l0.2-0.2h-0.4l0.2-0.2H348l0.2-0.2h-0.4l0.2-0.2h-0.4l0.2-0.2h-0.4l0.2-0.2
										h-0.4l0.2-0.2h-0.4l0.2-0.2h-0.4l0.2-0.2h-0.4l0.2-0.2h-0.4l0.2-0.2H346l0.2-0.2h-0.4l0.2-0.2h-0.4l0.2-0.2h-0.4l0.2-0.2
										h-0.4l0.2-0.2h-0.4l0.2-0.2h-0.4l0.2-0.2h-0.4l0.2-0.2h-0.4l0.2-0.2h-0.4l0.2-0.2h-0.4l0.2-0.2h-0.4l0.2-0.2h-0.4l0.2-0.2
										h-0.4l0.2-0.2H343l0.2-0.2h-0.4l0.2-0.2h-0.4l0.2-0.2h-0.4l0.2-0.2h-0.4l0.2-0.2h-0.4l0.2-0.2h-0.4l0.2-0.2h-0.4l0.2-0.2
										h-0.4l0.2-0.2h-0.4l0.2-0.2h-0.4l0.2-0.2h-0.4l0.2-0.2h-0.4l0.2-0.2h-0.4l0.2-0.2H340l0.2-0.2h-0.4l0.2-0.2h-0.4l0.2-0.2
										h-0.4l0.2-0.2h-0.4l0.2-0.2h-0.4l0.2-0.2h-0.4l0.2-0.2h-0.4l0.2-0.2h-0.4l0.2-0.2h-0.4l0.2-0.2h-0.4l0.2-0.2h-0.4l0.2-0.2
										h-0.4l0.2-0.2h-0.4l0.2-0.2H337l0.2-0.2h-0.4l0.2-0.2h-0.4l0.2-0.2h-0.4l0.2-0.2h-0.4l0.2-0.2h-0.4l0.2-0.2h-0.4l0.2-0.2
										h-0.4l0.2-0.2h-0.4l0.2-0.2H335l0.2-0.2h-0.4l0.2-0.2h-0.4l0.2-0.2h-0.4l0.2-0.2h-0.4l0.2-0.2H334l0.2-0.2h-0.4l0.2-0.2
										h-0.4l0.2-0.2h-0.4l0.2-0.2h-0.4l0.2-0.2h-0.4l0.2-0.2h-0.4l0.2-0.2h-0.4l0.2-0.2h-0.4l0.2-0.2H332l0.2-0.2h-0.4l0.2-0.2
										h-0.4l0.2-0.2h-0.4l0.2-0.2h-0.4l0.2-0.2H331l0.2-0.2h-0.4l0.2-0.2h-0.4l0.2-0.2h-0.4l0.2-0.2h-0.4l0.2-0.2h-0.4l0.2-0.2
										h-0.4l0.2-0.2h-0.4l0.2-0.2h-0.4l0.2-0.2H329l0.2-0.2h-0.4l0.2-0.2h-0.4l0.2-0.2h-0.4l0.2-0.2h-0.4l0.2-0.2H328l0.2-0.2
										h-0.4l0.2-0.2h-0.4l0.2-0.2h-0.4l0.2-0.2h-0.4l0.2-0.2h-0.4l0.2-0.2h-0.4l0.2-0.2h-0.4l0.2-0.2h-0.4l0.2-0.2H326l0.2-0.2
										h-0.4l0.2-0.2h-0.4l0.2-0.2h-0.4l0.2-0.2h-0.4l0.2-0.2h-0.4l0.2-0.2h-0.4l0.2-0.2h-0.4l0.2-0.2h-0.4l0.2-0.2h-0.4l0.2-0.2
										h-0.4l0.2-0.2h-0.4l0.2-0.2h-0.4l0.2-0.2h-0.4l0.2-0.2H323l0.2-0.2h-0.4l0.2-0.2h-0.4l0.2-0.2h-0.4l0.2-0.2h-0.4l0.2-0.2
										h-0.4l0.2-0.2h-0.4l0.2-0.2h-0.4l0.2-0.2h-0.4l0.2-0.2h-0.4l0.2-0.2h-0.4l0.2-0.2h-0.4l0.2-0.2h-0.4l0.2-0.2h-0.4l0.2-0.2
										H320l0.2-0.2h-0.4l0.2-0.2h-0.4l0.2-0.2h-0.4l0.2-0.2h-0.4l0.2-0.2h-0.4l0.2-0.2h-0.4l0.2-0.2h-0.4l0.2-0.2h-0.4l0.2-0.2
										h-0.4l0.2-0.2h-0.4l0.2-0.2h-0.4l0.2-0.2h-0.4l0.2-0.2h-0.4l0.2-0.2H317l0.2-0.2h-0.4l0.2-0.2h-0.4l0.2-0.2h-0.4l0.2-0.2
										h-0.4l0.2-0.2h-0.4l0.2-0.2h-0.4l0.2-0.2h-0.4l0.2-0.2h-0.4l0.2-0.2H315l0.2-0.2h-0.4l0.2-0.2h-0.4l0.2-0.2h-0.4l0.2-0.2
										h-0.4l0.2-0.2H314l0.2-0.2h-0.4l0.2-0.2h-0.4l0.2-0.2h-0.4l0.2-0.2h-0.4l0.2-0.2h-0.4l0.2-0.2h-0.4l0.2-0.2h-0.4l0.2-0.2
										h-0.4l0.2-0.2H312l0.2-0.2h-0.4l0.2-0.2h-0.4l0.2-0.2h-0.4l0.2-0.2h-0.4l0.2-0.2H311l0.2-0.2h-0.4l0.2-0.2h-0.4l0.2-0.2
										h-0.4l0.2-0.2h-0.4l0.2-0.2h-0.4l0.2-0.2h-0.4l0.2-0.2h-0.4l0.2-0.2h-0.4l0.2-0.2H309l0.2-0.2h-0.4l0.2-0.2h-0.4l0.2-0.2
										h-0.4l0.2-0.2h-0.4l0.2-0.2h-0.4l0.2-0.2h-0.4l0.2-0.2h-0.4l0.2-0.2h-0.4l0.2-0.2h-0.4l0.2-0.2h-0.4l0.2-0.2h-0.4l0.2-0.2
										h-0.4l0.2-0.2h-0.4l0.2-0.2H306l0.2-0.2h-0.4l0.2-0.2h-0.4l0.2-0.2h-0.4l0.2-0.2h-0.4l0.2-0.2h-0.4l0.2-0.2h-0.4l0.2-0.2
										h-0.4l0.2-0.2h-0.4l0.2-0.2h-0.4l0.2-0.2h-0.4l0.2-0.2h-0.4l0.2-0.2h-0.4l0.2-0.2h-0.4l0.2-0.2H303l0.2-0.2h-0.4l0.2-0.2
										h-0.4l0.2-0.2h-0.4l0.2-0.2h-0.4l0.2-0.2h-0.4l0.2-0.2h-0.4l0.2-0.2h-0.4l0.2-0.2h-0.4l0.2-0.2h-0.4l0.2-0.2h-0.4l0.2-0.2
										h-0.4l0.2-0.2h-0.4l0.2-0.2h-0.4l0.2-0.2H300l0.2-0.2h-0.4l0.2-0.2h-0.4l0.2-0.2h-0.4l0.2-0.2h-0.4l0.2-0.2h-0.4l0.2-0.2
										h-0.4l0.2-0.2h-0.4l0.2-0.2h-0.4l0.2-0.2h-0.4l0.2-0.2h-0.4l0.2-0.2h-0.4l0.2-0.2h-0.4l0.2-0.2h-0.4l0.2-0.2H297l0.2-0.2
										h-0.4l0.2-0.2h-0.4l0.2-0.2h-0.4l0.2-0.2h-0.4l0.2-0.2h-0.4l0.2-0.2h-0.4l0.2-0.2h-0.4l0.2-0.2h-0.4l0.2-0.2H295l0.2-0.2
										h-0.4l0.2-0.2h-0.4l0.2-0.2h-0.4l0.2-0.2h-0.4l0.2-0.2H294l0.2-0.2h-0.4l0.2-0.2h-0.4l0.2-0.2h-0.4l0.2-0.2h-0.4l0.2-0.2
										h-0.4l0.2-0.2h-0.4l0.2-0.2h-0.4l0.2-0.2h-0.4l0.2-0.2H292l0.2-0.2h-0.4l0.2-0.2h-0.4l0.2-0.2h-0.4l0.2-0.2h-0.4l0.2-0.2
										H291l0.2-0.2h-0.4l0.2-0.2h-0.4l0.2-0.2h-0.4l0.2-0.2h-0.4l0.2-0.2h-0.4l0.2-0.2h-0.4l0.2-0.2h-0.4l0.2-0.2h-0.4l0.2-0.2
										H289l0.2-0.2h-0.4l0.2-0.2h-0.4l0.2-0.2h-0.4l0.2-0.2h-0.4l0.2-0.2h-0.4l0.2-0.2h-0.4l0.2-0.2h-0.4l0.2-0.2h-0.4l0.2-0.2
										h-0.4l0.2-0.2h-0.4l0.2-0.2h-0.4l0.2-0.2h-0.4l0.2-0.2h-0.4l0.2-0.2H286l0.2-0.2h-0.4l0.2-0.2h-0.4l0.2-0.2h-0.4l0.2-0.2
										h-0.4l0.2-0.2h-0.4l0.2-0.2h-0.4l0.2-0.2h-0.4l0.2-0.2h-0.4l0.2-0.2h-0.4l0.2-0.2h-0.4l0.2-0.2h-0.4l0.2-0.2h-0.4l0.2-0.2
										h-0.4l0.2-0.2H283l0.2-0.2h-0.4l0.2-0.2h-0.4l0.2-0.2h-0.4l0.2-0.2h-0.4l0.2-0.2h-0.4l0.2-0.2h-0.4l0.2-0.2h-0.4l0.2-0.2
										h-0.4l0.2-0.2h-0.4l0.2-0.2h-0.4l0.2-0.2h-0.4l0.2-0.2h-0.4l0.2-0.2h-0.4l0.2-0.2H280l0.2-0.2h-0.4L280,97h-0.4l0.2-0.2
										h-0.4l0.2-0.2h-0.4l0.2-0.2h-0.4l0.2-0.2h-0.4l0.2-0.2h-0.4l0.2-0.2h-0.4l0.2-0.2h-0.4l0.2-0.2h-0.4l0.2-0.2h-0.4l0.2-0.2
										h-0.4l0.2-0.2h-0.4l0.2-0.2H277l0.2-0.2h-0.4L277,94h-0.4l0.2-0.2h-0.4l0.2-0.2h-0.4l0.2-0.2h-0.4l0.2-0.2h-0.4l0.2-0.2
										h-0.4l0.2-0.2h-0.4l0.2-0.2H275l0.2-0.2h-0.4l0.2-0.2h-0.4l0.2-0.2h-0.4l0.2-0.2h-0.4l0.2-0.2H274l0.2-0.2h-0.4L274,91
										h-0.4l0.2-0.2h-0.4l0.2-0.2h-0.4l0.2-0.2h-0.4l0.2-0.2h-0.4l0.2-0.2h-0.4l0.2-0.2h-0.4l0.2-0.2H272l0.2-0.2h-0.4L272,89
										h-0.4l0.2-0.2h-0.4l0.2-0.2h-0.4l0.2-0.2H271l0.2-0.2h-0.4L271,88h-0.4l0.2-0.2h-0.4l0.2-0.2h-0.4l0.2-0.2h-0.4l0.2-0.2
										h-0.4l0.2-0.2h-0.4l0.2-0.2h-0.4l0.2-0.2H269l0.2-0.2h-0.4L269,86h-0.4l0.2-0.2h-0.4l0.2-0.2h-0.4l0.2-0.2h-0.4l0.2-0.2
										h-0.4l0.2-0.2h-0.4l0.2-0.2h-0.4l0.2-0.2h-0.4l0.2-0.2h-0.4l0.2-0.2h-0.4l0.2-0.2h-0.4l0.2-0.2h-0.4l0.2-0.2H266l0.2-0.2
										h-0.4L266,83h-0.4l0.2-0.2h-0.4l0.2-0.2h-0.4l0.2-0.2h-0.4l0.2-0.2h-0.4l0.2-0.2h-0.4l0.2-0.2h-0.4l0.2-0.2h-0.4l0.2-0.2
										h-0.4l0.2-0.2h-0.4l0.2-0.2h-0.4l0.2-0.2h-0.4l0.2-0.2H263l0.2-0.2h-0.4L263,80h-0.4l0.2-0.2h-0.4l0.2-0.2h-0.4l0.2-0.2
										h-0.4l0.2-0.2h-0.4l0.2-0.2h-0.4l0.2-0.2h-0.4l0.2-0.2h-0.4l0.2-0.2h-0.4l0.2-0.2h-0.4l0.2-0.2h-0.4l0.2-0.2h-0.4l0.2-0.2
										H260l0.2-0.2h-0.4L260,77h-0.4l0.2-0.2h-0.4l0.2-0.2h-0.4l0.2-0.2h-0.4l0.2-0.2h-0.4l0.2-0.2h-0.4l0.2-0.2h-0.4l0.2-0.2
										h-0.4l0.2-0.2h-0.4l0.2-0.2h-0.4l0.2-0.2h-0.4l0.2-0.2h-0.4l0.2-0.2H257l0.2-0.2h-0.4L257,74h-0.4l0.2-0.2h-0.4l0.2-0.2
										h-0.4l0.2-0.2h-0.4l0.2-0.2h-0.4l0.2-0.2h-0.4l0.2-0.2h-0.4l0.2-0.2H255l0.2-0.2h-0.4l0.2-0.2h-0.4l0.2-0.2h-0.4l0.2-0.2
										h-0.4l0.2-0.2H254l0.2-0.2h-0.4L254,71h-0.4l0.2-0.2h-0.4l0.2-0.2h-0.4l0.2-0.2h-0.4l0.2-0.2h-0.4l0.2-0.2h-0.4l0.2-0.2
										h-0.4l0.2-0.2H252l0.2-0.2h-0.4L252,69h-0.4l0.2-0.2h-0.4l0.2-0.2h-0.4l0.2-0.2H251l0.2-0.2h-0.4L251,68h-0.4l0.2-0.2h-0.4
										l0.2-0.2h-0.4l0.2-0.2h-0.4l0.2-0.2h-0.4l0.2-0.2h-0.4l0.2-0.2h-0.4l0.2-0.2H249l0.2-0.2h-0.4L249,66h-0.4l0.2-0.2h-0.4
										l0.2-0.2h-0.4l0.2-0.2h-0.4l0.2-0.2h-0.4l0.2-0.2h-0.4l0.2-0.2h-0.4l0.2-0.2h-0.4l0.2-0.2h-0.4l0.2-0.2h-0.4l0.2-0.2h-0.4
										l0.2-0.2h-0.4l0.2-0.2H246l0.2-0.2h-0.4L246,63h-0.4l0.2-0.2h-0.4l0.2-0.2h-0.4l0.2-0.2h-0.4l0.2-0.2h-0.4l0.2-0.2h-0.4
										l0.2-0.2h-0.4l0.2-0.2h-0.4l0.2-0.2h-0.4l0.2-0.2h-0.4l0.2-0.2h-0.4l0.2-0.2h-0.4l0.2-0.2H243l0.2-0.2h-0.4L243,60h-0.4
										l0.2-0.2h-0.4l0.2-0.2h-0.4l0.2-0.2h-0.4l0.2-0.2h-0.4l0.2-0.2h-0.4l0.2-0.2h-0.4l0.2-0.2h-49.8
										c-55.2,0-99.9,44.7-99.9,99.9v36c0,8.8-3.5,17.3-9.8,23.5l-23.5,23.5h0.4l-0.2,0.2h0.4l-0.2,0.2h0.4l-0.2,0.2h0.4l-0.2,0.2
										h0.4l-0.2,0.2H60l-0.2,0.2h0.4L60,243h0.4l-0.2,0.2h0.4l-0.2,0.2h0.4l-0.2,0.2h0.4l-0.2,0.2h0.4l-0.2,0.2h0.4l-0.2,0.2h0.4
										l-0.2,0.2h0.4l-0.2,0.2h0.4l-0.2,0.2h0.4l-0.2,0.2h0.4l-0.2,0.2h0.4l-0.2,0.2H63l-0.2,0.2h0.4L63,246h0.4l-0.2,0.2h0.4
										l-0.2,0.2h0.4l-0.2,0.2h0.4l-0.2,0.2h0.4l-0.2,0.2h0.4l-0.2,0.2h0.4l-0.2,0.2H65l-0.2,0.2h0.4l-0.2,0.2h0.4l-0.2,0.2h0.4
										l-0.2,0.2h0.4l-0.2,0.2H66l-0.2,0.2h0.4L66,249h0.4l-0.2,0.2h0.4l-0.2,0.2h0.4l-0.2,0.2h0.4l-0.2,0.2h0.4l-0.2,0.2h0.4
										l-0.2,0.2h0.4l-0.2,0.2H68l-0.2,0.2h0.4L68,251h0.4l-0.2,0.2h0.4l-0.2,0.2h0.4l-0.2,0.2H69l-0.2,0.2h0.4L69,252h0.4
										l-0.2,0.2h0.4l-0.2,0.2h0.4l-0.2,0.2h0.4l-0.2,0.2h0.4l-0.2,0.2h0.4l-0.2,0.2h0.4l-0.2,0.2H71l-0.2,0.2h0.4L71,254h0.4
										l-0.2,0.2h0.4l-0.2,0.2h0.4l-0.2,0.2h0.4l-0.2,0.2h0.4l-0.2,0.2h0.4l-0.2,0.2h0.4l-0.2,0.2h0.4l-0.2,0.2h0.4l-0.2,0.2h0.4
										l-0.2,0.2h0.4l-0.2,0.2h0.4l-0.2,0.2H74l-0.2,0.2h0.4L74,257h0.4l-0.2,0.2h0.4l-0.2,0.2h0.4l-0.2,0.2h0.4l-0.2,0.2h0.4
										l-0.2,0.2h0.4l-0.2,0.2h0.4l-0.2,0.2h0.4l-0.2,0.2h0.4l-0.2,0.2h0.4l-0.2,0.2h0.4l-0.2,0.2h0.4l-0.2,0.2H77l-0.2,0.2h0.4
										L77,260h0.4l-0.2,0.2h0.4l-0.2,0.2h0.4l-0.2,0.2h0.4l-0.2,0.2h0.4l-0.2,0.2h0.4l-0.2,0.2h0.4l-0.2,0.2h0.4l-0.2,0.2h0.4
										l-0.2,0.2h0.4l-0.2,0.2h0.4l-0.2,0.2h0.4l-0.2,0.2H80l-0.2,0.2h0.4L80,263h0.4l-0.2,0.2h0.4l-0.2,0.2h0.4l-0.2,0.2h0.4
										l-0.2,0.2h0.4l-0.2,0.2h0.4l-0.2,0.2h0.4l-0.2,0.2h0.4l-0.2,0.2h0.4l-0.2,0.2h0.4l-0.2,0.2h0.4l-0.2,0.2h0.4l-0.2,0.2H83
										l-0.2,0.2h0.4L83,266h0.4l-0.2,0.2h0.4l-0.2,0.2h0.4l-0.2,0.2h0.4l-0.2,0.2h0.4l-0.2,0.2h0.4l-0.2,0.2h0.4l-0.2,0.2H85
										l-0.2,0.2h0.4l-0.2,0.2h0.4l-0.2,0.2h0.4l-0.2,0.2h0.4l-0.2,0.2H86l-0.2,0.2h0.4L86,269h0.4l-0.2,0.2h0.4l-0.2,0.2h0.4
										l-0.2,0.2h0.4l-0.2,0.2h0.4l-0.2,0.2h0.4l-0.2,0.2h0.4l-0.2,0.2H88l-0.2,0.2h0.4L88,271h0.4l-0.2,0.2h0.4l-0.2,0.2h0.4
										l-0.2,0.2H89l-0.2,0.2h0.4L89,272h0.4l-0.2,0.2h0.4l-0.2,0.2h0.4l-0.2,0.2h0.4l-0.2,0.2h0.4l-0.2,0.2h0.4l-0.2,0.2h0.4
										l-0.2,0.2H91l-0.2,0.2h0.4L91,274h0.4l-0.2,0.2h0.4l-0.2,0.2h0.4l-0.2,0.2h0.4l-0.2,0.2h0.4l-0.2,0.2h0.4l-0.2,0.2h0.4
										l-0.2,0.2h0.4l-0.2,0.2h0.4l-0.2,0.2h0.4l-0.2,0.2h0.4l-0.2,0.2h0.4l-0.2,0.2H94l-0.2,0.2h0.4L94,277h0.4l-0.2,0.2h0.4
										l-0.2,0.2h0.4l-0.2,0.2h0.4l-0.2,0.2h0.4l-0.2,0.2h0.4l-0.2,0.2h0.4l-0.2,0.2h0.4l-0.2,0.2h0.4l-0.2,0.2h0.4l-0.2,0.2h0.4
										l-0.2,0.2h0.4l-0.2,0.2H97l-0.2,0.2h0.4L97,280h0.4l-0.2,0.2h0.4l-0.2,0.2h0.4l-0.2,0.2h0.4l-0.2,0.2h0.4l-0.2,0.2h0.4
										l-0.2,0.2h0.4l-0.2,0.2h0.4l-0.2,0.2h0.4l-0.2,0.2h0.4l-0.2,0.2h0.4l-0.2,0.2h0.4l-0.2,0.2h0.4l-0.2,0.2h0.4L100,283h0.4
										l-0.2,0.2h0.4l-0.2,0.2h0.4l-0.2,0.2h0.4l-0.2,0.2h0.4l-0.2,0.2h0.4l-0.2,0.2h0.4l-0.2,0.2h0.4l-0.2,0.2h0.4l-0.2,0.2h0.4
										l-0.2,0.2h0.4l-0.2,0.2h0.4l-0.2,0.2h0.4l-0.2,0.2h0.4L103,286h0.4l-0.2,0.2h0.4l-0.2,0.2h0.4l-0.2,0.2h0.4l-0.2,0.2h0.4
										l-0.2,0.2h0.4l-0.2,0.2h0.4l-0.2,0.2h0.4l-0.2,0.2h0.4l-0.2,0.2h0.4l-0.2,0.2h0.4l-0.2,0.2h0.4l-0.2,0.2h0.4l-0.2,0.2h0.4
										L106,289h0.4l-0.2,0.2h0.4l-0.2,0.2h0.4l-0.2,0.2h0.4l-0.2,0.2h0.4l-0.2,0.2h0.4l-0.2,0.2h0.4l-0.2,0.2h0.4l-0.2,0.2h0.4
										L108,291h0.4l-0.2,0.2h0.4l-0.2,0.2h0.4l-0.2,0.2h0.4l-0.2,0.2h0.4L109,292h0.4l-0.2,0.2h0.4l-0.2,0.2h0.4l-0.2,0.2h0.4
										l-0.2,0.2h0.4l-0.2,0.2h0.4l-0.2,0.2h0.4l-0.2,0.2h0.4l-0.2,0.2h0.4L111,294h0.4l-0.2,0.2h0.4l-0.2,0.2h0.4l-0.2,0.2h0.4
										l-0.2,0.2h0.4l-0.2,0.2h0.4l-0.2,0.2h0.4l-0.2,0.2h0.4l-0.2,0.2h0.4l-0.2,0.2h0.4l-0.2,0.2h0.4l-0.2,0.2h0.4l-0.2,0.2h0.4
										l-0.2,0.2h0.4L114,297h0.4l-0.2,0.2h0.4l-0.2,0.2h0.4l-0.2,0.2h0.4l-0.2,0.2h0.4l-0.2,0.2h0.4l-0.2,0.2h0.4l-0.2,0.2h0.4
										l-0.2,0.2h0.4l-0.2,0.2h0.4l-0.2,0.2h0.4l-0.2,0.2h0.4l-0.2,0.2h0.4l-0.2,0.2h0.4L117,300h0.4l-0.2,0.2h0.4l-0.2,0.2h0.4
										l-0.2,0.2h0.4l-0.2,0.2h0.4l-0.2,0.2h0.4l-0.2,0.2h0.4l-0.2,0.2h0.4l-0.2,0.2h0.4l-0.2,0.2h0.4l-0.2,0.2h0.4l-0.2,0.2h0.4
										l-0.2,0.2h0.4l-0.2,0.2h0.4L120,303h0.4l-0.2,0.2h0.4l-0.2,0.2h0.4l-0.2,0.2h0.4l-0.2,0.2h0.4l-0.2,0.2h0.4l-0.2,0.2h0.4
										l-0.2,0.2h0.4l-0.2,0.2h0.4l-0.2,0.2h0.4l-0.2,0.2h0.4l-0.2,0.2h0.4l-0.2,0.2h0.4l-0.2,0.2h0.4L123,306h0.4l-0.2,0.2h0.4
										l-0.2,0.2h0.4l-0.2,0.2h0.4l-0.2,0.2h0.4l-0.2,0.2h0.4l-0.2,0.2h0.4l-0.2,0.2h0.4l-0.2,0.2h0.4l-0.2,0.2h0.4l-0.2,0.2h0.4
										l-0.2,0.2h0.4l-0.2,0.2h0.4l-0.2,0.2h0.4L126,309h0.4l-0.2,0.2h0.4l-0.2,0.2h0.4l-0.2,0.2h0.4l-0.2,0.2h0.4l-0.2,0.2h0.4
										l-0.2,0.2h0.4l-0.2,0.2h0.4l-0.2,0.2h0.4L128,311h0.4l-0.2,0.2h0.4l-0.2,0.2h0.4l-0.2,0.2h0.4l-0.2,0.2h0.4L129,312h0.4
										l-0.2,0.2h0.4l-0.2,0.2h0.4l-0.2,0.2h0.4l-0.2,0.2h0.4l-0.2,0.2h0.4l-0.2,0.2h0.4l-0.2,0.2h0.4l-0.2,0.2h0.4L131,314h0.4
										l-0.2,0.2h0.4l-0.2,0.2h0.4l-0.2,0.2h0.4l-0.2,0.2h0.4l-0.2,0.2h0.4l-0.2,0.2h0.4l-0.2,0.2h0.4l-0.2,0.2h0.4l-0.2,0.2h0.4
										l-0.2,0.2h0.4l-0.2,0.2h0.4l-0.2,0.2h0.4l-0.2,0.2h0.4L134,317h0.4l-0.2,0.2h0.4l-0.2,0.2h0.4l-0.2,0.2h0.4l-0.2,0.2h0.4
										l-0.2,0.2h0.4l-0.2,0.2h0.4l-0.2,0.2h0.4l-0.2,0.2h0.4l-0.2,0.2h0.4l-0.2,0.2h0.4l-0.2,0.2h0.4l-0.2,0.2h0.4l-0.2,0.2h0.4
										L137,320h0.4l-0.2,0.2h0.4l-0.2,0.2h0.4l-0.2,0.2h0.4l-0.2,0.2h0.4l-0.2,0.2h0.4l-0.2,0.2h0.4l-0.2,0.2h0.4l-0.2,0.2h0.4
										l-0.2,0.2h0.4l-0.2,0.2h0.4l-0.2,0.2h0.4l-0.2,0.2h0.4l-0.2,0.2h0.4L140,323h0.4l-0.2,0.2h0.4l-0.2,0.2h0.4l-0.2,0.2h0.4
										l-0.2,0.2h0.4l-0.2,0.2h0.4l-0.2,0.2h0.4l-0.2,0.2h0.4l-0.2,0.2h0.4l-0.2,0.2h0.4l-0.2,0.2h0.4l-0.2,0.2h0.4l-0.2,0.2h0.4
										l-0.2,0.2h0.4L143,326h0.4l-0.2,0.2h0.4l-0.2,0.2h0.4l-0.2,0.2h0.4l-0.2,0.2h0.4l-0.2,0.2h0.4l-0.2,0.2h0.4l-0.2,0.2h0.4
										l-0.2,0.2h0.4L145,328h0.4l-0.2,0.2h0.4l-0.2,0.2h0.4l-0.2,0.2h0.4l-0.2,0.2h0.4L146,329h0.4l-0.2,0.2h0.4l-0.2,0.2h0.4
										l-0.2,0.2h0.4l-0.2,0.2h0.4l-0.2,0.2h0.4l-0.2,0.2h0.4l-0.2,0.2h0.4l-0.2,0.2h0.4L148,331h0.4l-0.2,0.2h0.4l-0.2,0.2h0.4
										l-0.2,0.2h0.4l-0.2,0.2h0.4L149,332h0.4l-0.2,0.2h0.4l-0.2,0.2h0.4l-0.2,0.2h0.4l-0.2,0.2h0.4l-0.2,0.2h0.4l-0.2,0.2h0.4
										l-0.2,0.2h0.4l-0.2,0.2h0.4L151,334h0.4l-0.2,0.2h0.4l-0.2,0.2h0.4l-0.2,0.2h0.4l-0.2,0.2h0.4l-0.2,0.2h0.4l-0.2,0.2h0.4
										l-0.2,0.2h0.4l-0.2,0.2h0.4l-0.2,0.2h0.4l-0.2,0.2h0.4l-0.2,0.2h0.4l-0.2,0.2h0.4l-0.2,0.2h0.4L154,337h0.4l-0.2,0.2h0.4
										l-0.2,0.2h0.4l-0.2,0.2h0.4l-0.2,0.2h0.4l-0.2,0.2h0.4l-0.2,0.2h0.4l-0.2,0.2h0.4l-0.2,0.2h0.4l-0.2,0.2h0.4l-0.2,0.2h0.4
										l-0.2,0.2h0.4l-0.2,0.2h0.4l-0.2,0.2h0.4L157,340h0.4l-0.2,0.2h0.4l-0.2,0.2h0.4l-0.2,0.2h0.4l-0.2,0.2h0.4l-0.2,0.2h0.4
										l-0.2,0.2h0.4l-0.2,0.2h0.4l-0.2,0.2h0.4l-0.2,0.2h0.4l-0.2,0.2h0.4l-0.2,0.2h0.4l-0.2,0.2h0.4l-0.2,0.2h0.4L160,343h0.4
										l-0.2,0.2h0.4l-0.2,0.2h0.4l-0.2,0.2h0.4l-0.2,0.2h0.4l-0.2,0.2h0.4l-0.2,0.2h0.4l-0.2,0.2h0.4l-0.2,0.2h0.4l-0.2,0.2h0.4
										l-0.2,0.2h0.4l-0.2,0.2h0.4l-0.2,0.2h0.4l-0.2,0.2h0.4L163,346h0.4l-0.2,0.2h0.4l-0.2,0.2h0.4l-0.2,0.2h0.4l-0.2,0.2h0.4
										l-0.2,0.2h0.4l-0.2,0.2h0.4l-0.2,0.2h0.4l-0.2,0.2h0.4L165,348h0.4l-0.2,0.2h0.4l-0.2,0.2h0.4l-0.2,0.2h0.4l-0.2,0.2h0.4
										L166,349h49.8c55.2,0,99.9-44.7,99.9-99.9v-36c0-8.8,3.5-17.3,9.8-23.5L349,166H348.6z"/>
								</defs>
								<clipPath id="XMLID_65_">
									<use xlink:href="#XMLID_55_"  style="overflow:visible;"/>
								</clipPath>
								
									<linearGradient id="XMLID_66_" gradientUnits="userSpaceOnUse" x1="-33.699" y1="-33.7463" x2="-33.2689" y2="-33.7463" gradientTransform="matrix(-321.8889 -321.8889 -321.8889 321.8889 -21418.6621 306.474)">
									<stop  offset="0" style="stop-color:#FFFFFF"/>
									<stop  offset="8.489490e-002" style="stop-color:#F4F5F5"/>
									<stop  offset="0.2235" style="stop-color:#E0E1E2"/>
									<stop  offset="0.3985" style="stop-color:#BFC1C3"/>
									<stop  offset="0.6031" style="stop-color:#939597"/>
									<stop  offset="0.8298" style="stop-color:#5D5E61"/>
									<stop  offset="1" style="stop-color:#000000"/>
								</linearGradient>
								<polygon id="XMLID_56_" class="st6" points="203.8,494.3 -86.8,203.8 203.8,-86.8 494.3,203.8 								"/>
							</g>
						</g>
					</g>
					<path id="XMLID_53_" class="st7" d="M191.7,58.5c-55.2,0-99.9,44.7-99.9,99.9v36c0,8.8-3.5,17.3-9.8,23.5l-23.5,23.5h49.8
						c55.2,0,99.9-44.7,99.9-99.9v-36c0-8.8,3.5-17.3,9.8-23.5l23.5-23.5H191.7z"/>
					<path id="XMLID_52_" class="st8" d="M176,150c0,14.4-11.7,26-26,26c-14.4,0-26-11.7-26-26c0-14.4,11.7-26,26-26
						C164.4,124,176,135.6,176,150"/>
					<g class="st9">
						<g>
							<defs>
								<rect id="XMLID_51_" x="0" width="300" height="300"/>
							</defs>
							<clipPath id="XMLID_67_">
								<use xlink:href="#XMLID_51_"  style="overflow:visible;"/>
							</clipPath>
						</g>
					</g>
				</g>
				<g class="st1">
					<defs>
						<rect id="XMLID_48_" x="0" width="300" height="300"/>
					</defs>
					<clipPath id="XMLID_68_">
						<use xlink:href="#XMLID_48_"  style="overflow:visible;"/>
					</clipPath>
					<g class="st10">
						<g>
							<defs>
								<rect id="XMLID_49_" x="0" width="300" height="300"/>
							</defs>
							<clipPath id="XMLID_69_">
								<use xlink:href="#XMLID_49_"  style="overflow:visible;"/>
							</clipPath>
						</g>
					</g>
				</g>
			</g>
		</g>
	</g>
</g>
<g id="Layer_2">
	<g id="XMLID_2_">
		<path id="XMLID_19_" class="st11" d="M65.1,376.3c0-3.8-3.3-6.5-9.8-7.9c-3.9-0.8-6.7-1.9-8.2-3.2c-1.5-1.3-2.3-3.1-2.3-5.4
			c0-2.3,1-4.2,2.9-5.7c2-1.5,4.5-2.3,7.7-2.3c3.4,0,6.2,0.8,8.2,2.4c2.1,1.6,3.1,3.8,3.1,6.6H65c0-2.1-0.9-3.9-2.7-5.3
			c-1.8-1.4-4.1-2.1-7-2.1c-2.8,0-5,0.6-6.6,1.8c-1.6,1.2-2.4,2.7-2.4,4.5c0,1.4,0.3,2.5,0.9,3.4c0.6,0.8,1.6,1.5,3,2.2
			c1.4,0.7,3.4,1.3,6,1.9c2.6,0.6,4.7,1.3,6.2,2.1s2.6,1.8,3.3,2.9c0.7,1.1,1,2.5,1,4.1c0,2.5-1,4.5-3.1,6c-2.1,1.5-4.7,2.3-8.1,2.3
			c-3.6,0-6.4-0.8-8.6-2.4c-2.2-1.6-3.3-3.7-3.3-6.2h1.6c0.2,2.2,1.1,4,2.9,5.2c1.8,1.2,4.3,1.9,7.3,1.9c2.8,0,5.1-0.7,6.9-2
			C64.2,379.8,65.1,378.2,65.1,376.3z"/>
		<path id="XMLID_21_" class="st11" d="M86.1,383c2.9,0,5.2-0.8,7.1-2.3c1.9-1.5,2.9-3.6,3.1-6.3h1.6c-0.2,3.1-1.3,5.5-3.5,7.4
			c-2.2,1.9-4.9,2.8-8.2,2.8c-4,0-7.1-1.4-9.4-4.3c-2.3-2.9-3.5-6.8-3.5-11.7v-1.1c0-4.8,1.2-8.6,3.5-11.5c2.3-2.9,5.5-4.3,9.4-4.3
			c3.4,0,6.1,1,8.3,3c2.2,2,3.3,4.7,3.5,8h-1.6c-0.1-2.9-1.1-5.1-3-6.9c-1.9-1.7-4.3-2.6-7.2-2.6c-3.5,0-6.3,1.3-8.3,3.8
			c-2,2.5-3,6.1-3,10.6v1c0,4.4,1,7.9,3,10.4C79.8,381.8,82.6,383,86.1,383z"/>
		<path id="XMLID_23_" class="st11" d="M105.4,342.4c0-0.4,0.2-0.8,0.5-1.2c0.3-0.3,0.7-0.5,1.1-0.5c0.4,0,0.8,0.2,1.2,0.5
			s0.5,0.7,0.5,1.2c0,0.4-0.2,0.8-0.5,1.1c-0.3,0.3-0.7,0.5-1.2,0.5c-0.4,0-0.8-0.2-1.1-0.5C105.5,343.3,105.4,342.9,105.4,342.4z
			 M107.8,384h-1.6v-31.7h1.6V384z"/>
		<path id="XMLID_26_" class="st11" d="M132.1,353.5l-2.1-0.2c-2.7,0-5,0.9-6.8,2.6c-1.8,1.7-3,4.2-3.6,7.3V384h-1.6v-31.7h1.6v6.6
			c0.9-2.2,2.1-4,3.9-5.2c1.7-1.3,3.9-1.9,6.5-1.9c0.9,0,1.7,0.1,2.2,0.3L132.1,353.5z"/>
		<path id="XMLID_28_" class="st11" d="M135.2,367.6c0-3,0.6-5.7,1.7-8.2c1.2-2.4,2.8-4.3,4.9-5.6c2.1-1.3,4.5-2,7.2-2
			c2.7,0,5,0.7,7.1,2c2.1,1.3,3.8,3.2,4.9,5.6c1.2,2.4,1.8,5.1,1.8,8.1v1.4c0,3-0.6,5.8-1.7,8.2c-1.2,2.4-2.8,4.3-4.9,5.6
			c-2.1,1.3-4.5,2-7.2,2c-2.7,0-5.1-0.7-7.2-2c-2.1-1.3-3.8-3.2-4.9-5.6c-1.2-2.4-1.8-5.1-1.8-8.1V367.6z M136.8,368.8
			c0,2.6,0.5,5.1,1.6,7.3c1,2.2,2.5,3.9,4.4,5.1c1.9,1.2,4,1.8,6.4,1.8c3.6,0,6.6-1.4,8.8-4.1c2.3-2.7,3.4-6.2,3.4-10.5v-0.9
			c0-2.6-0.5-5-1.6-7.2c-1.1-2.2-2.5-3.9-4.4-5.2c-1.9-1.2-4-1.9-6.3-1.9c-3.6,0-6.6,1.4-8.8,4.1s-3.4,6.2-3.4,10.4V368.8z"/>
		<path id="XMLID_31_" class="st11" d="M181.4,383c2.9,0,5.2-0.8,7.1-2.3c1.9-1.5,2.9-3.6,3.1-6.3h1.6c-0.2,3.1-1.3,5.5-3.5,7.4
			c-2.2,1.9-4.9,2.8-8.2,2.8c-4,0-7.1-1.4-9.4-4.3c-2.3-2.9-3.5-6.8-3.5-11.7v-1.1c0-4.8,1.2-8.6,3.5-11.5c2.3-2.9,5.5-4.3,9.4-4.3
			c3.4,0,6.1,1,8.3,3c2.2,2,3.3,4.7,3.5,8h-1.6c-0.1-2.9-1.1-5.1-3-6.9c-1.9-1.7-4.3-2.6-7.2-2.6c-3.5,0-6.3,1.3-8.3,3.8
			c-2,2.5-3,6.1-3,10.6v1c0,4.4,1,7.9,3,10.4C175.1,381.8,177.9,383,181.4,383z"/>
		<path id="XMLID_33_" class="st11" d="M211.9,383c2.9,0,5.2-0.8,7.1-2.3c1.9-1.5,2.9-3.6,3.1-6.3h1.6c-0.2,3.1-1.3,5.5-3.5,7.4
			c-2.2,1.9-4.9,2.8-8.2,2.8c-4,0-7.1-1.4-9.4-4.3c-2.3-2.9-3.5-6.8-3.5-11.7v-1.1c0-4.8,1.2-8.6,3.5-11.5c2.3-2.9,5.5-4.3,9.4-4.3
			c3.4,0,6.1,1,8.3,3c2.2,2,3.3,4.7,3.5,8H222c-0.1-2.9-1.1-5.1-3-6.9c-1.9-1.7-4.3-2.6-7.2-2.6c-3.5,0-6.3,1.3-8.3,3.8
			c-2,2.5-3,6.1-3,10.6v1c0,4.4,1,7.9,3,10.4C205.5,381.8,208.3,383,211.9,383z"/>
		<path id="XMLID_35_" class="st11" d="M229.1,367.6c0-3,0.6-5.7,1.7-8.2c1.2-2.4,2.8-4.3,4.9-5.6c2.1-1.3,4.5-2,7.2-2
			c2.7,0,5,0.7,7.1,2c2.1,1.3,3.8,3.2,4.9,5.6c1.2,2.4,1.8,5.1,1.8,8.1v1.4c0,3-0.6,5.8-1.7,8.2c-1.2,2.4-2.8,4.3-4.9,5.6
			c-2.1,1.3-4.5,2-7.2,2c-2.7,0-5.1-0.7-7.2-2c-2.1-1.3-3.8-3.2-4.9-5.6c-1.2-2.4-1.8-5.1-1.8-8.1V367.6z M230.7,368.8
			c0,2.6,0.5,5.1,1.6,7.3c1,2.2,2.5,3.9,4.4,5.1c1.9,1.2,4,1.8,6.4,1.8c3.6,0,6.6-1.4,8.8-4.1c2.3-2.7,3.4-6.2,3.4-10.5v-0.9
			c0-2.6-0.5-5-1.6-7.2c-1.1-2.2-2.5-3.9-4.4-5.2c-1.9-1.2-4-1.9-6.3-1.9c-3.6,0-6.6,1.4-8.8,4.1s-3.4,6.2-3.4,10.4V368.8z"/>
	</g>
	<g id="XMLID_18_">
	</g>
	<g id="XMLID_38_">
	</g>
	<g id="XMLID_39_">
	</g>
	<g id="XMLID_40_">
	</g>
	<g id="XMLID_41_">
	</g>
	<g id="XMLID_42_">
	</g>
</g>
</svg>
